<?xml version="1.0" standalone="no"?><!DOCTYPE svg PUBLIC "-//W3C//DTD SVG 1.1//EN" "http://www.w3.org/Graphics/SVG/1.1/DTD/svg11.dtd" ><svg xmlns="http://www.w3.org/2000/svg"><metadata></metadata><defs><font id="FontForge 2.0 : M+ 1mn bold : 30-9-2016" horiz-adv-x="500"><font-face font-family="M+ 1mn" font-weight="700" font-stretch="normal" units-per-em="1000" panose-1="2 11 7 9 2 2 4 2 2 4" ascent="1075" descent="-320" x-height="4" bbox="5 -230 495 760" underline-thickness="50" underline-position="-125" unicode-range="U+0030-007a" /><missing-glyph horiz-adv-x="364"  /><glyph glyph-name="" unicode="0" d="M132.5 707.5 Q177 740 250 740 Q323 740 367.5 707.5 Q412 675 436 591.5 Q460 508 460 365 Q460 222 436 138.5 Q412 55 367.5 22.5 Q323 -10 250 -10 Q177 -10 132.5 22.5 Q88 55 64 138.5 Q40 222 40 365 Q40 508 64 591.5 Q88 675 132.5 707.5 ZM182 177 Q191 129 207.5 110.5 Q224 92 250 92 Q278 92 294.5 111.5 Q311 131 320.5 192 Q330 253 330 365 Q330 412 329 432 L182 177 ZM170 317 L315 568 Q306 608 290 623 Q274 638 250 638 Q222 638 205.5 618.5 Q189 599 179.5 538 Q170 477 170 365 L170 317 Z" /><glyph glyph-name="" unicode="1" d="M240 602 L238 603 L65 512 L65 630 L240 730 L380 730 L380 0 L240 0 L240 602 Z" /><glyph glyph-name="" unicode="2" d="M205 110 L205 108 L440 108 L440 0 L60 0 L60 108 Q295 368 295 530 Q295 586 276.5 609 Q258 632 215 632 Q150 632 60 572 L60 685 Q144 740 245 740 Q335 740 385 689 Q435 638 435 540 Q435 364 205 110 Z" /><glyph glyph-name="" unicode="3" d="M245 740 Q347 740 398.5 696 Q450 652 450 570 Q450 495 421 451.5 Q392 408 330 388 L330 387 Q460 364 460 210 Q460 -10 225 -10 Q135 -10 50 25 L50 143 Q121 98 205 98 Q320 98 320 215 Q320 277 287.5 303.5 Q255 330 170 330 L150 330 L150 440 L170 440 Q249 440 282 466.5 Q315 493 315 550 Q315 634 210 634 Q148 634 65 592 L65 705 Q158 740 245 740 Z" /><glyph glyph-name="" unicode="4" d="M400 150 L400 0 L265 0 L265 150 L20 150 L20 256 L250 730 L400 730 L400 256 L480 256 L480 150 L400 150 ZM265 256 L265 545 L263 545 L126 258 L126 256 L265 256 Z" /><glyph glyph-name="" unicode="5" d="M202 455 Q238 474 284 474 Q445 474 445 235 Q445 106 389 48 Q333 -10 215 -10 Q133 -10 65 20 L65 138 Q134 98 205 98 Q256 98 280.5 129.5 Q305 161 305 235 Q305 312 290.5 340.5 Q276 369 244 369 Q210 369 180 335 L70 335 L80 730 L425 730 L425 624 L207 624 L200 455 L202 455 Z" /><glyph glyph-name="" unicode="6" d="M295 632 Q238 632 215 596 Q192 560 190 455 L192 455 Q237 490 290 490 Q382 490 423.5 435.5 Q465 381 465 250 Q465 109 414 49.5 Q363 -10 255 -10 Q180 -10 136 18.5 Q92 47 68.5 119.5 Q45 192 45 320 Q45 482 70 574 Q95 666 145 703 Q195 740 280 740 Q346 740 415 720 L415 602 Q358 632 295 632 ZM255 96 Q294 96 310.5 127 Q327 158 327 250 Q327 333 313 359 Q299 385 260 385 Q221 385 203 354.5 Q185 324 185 250 Q185 163 202 129.5 Q219 96 255 96 Z" /><glyph glyph-name="" unicode="7" d="M55 730 L445 730 L445 622 Q340 368 245 0 L99 0 Q196 343 325 620 L325 622 L55 622 L55 730 Z" /><glyph glyph-name="" unicode="8" d="M258 634 Q216 634 198 612.5 Q180 591 180 540 Q180 461 255 430 Q325 464 325 540 Q325 634 258 634 ZM250 -10 Q145 -10 87.5 42 Q30 94 30 190 Q30 306 135 369 L135 371 Q93 402 69 451 Q45 500 45 555 Q45 642 98.5 691 Q152 740 250 740 Q348 740 401.5 691.5 Q455 643 455 555 Q455 457 355 391 L355 389 Q470 327 470 190 Q470 94 412 42 Q354 -10 250 -10 ZM242 98 Q289 98 312 123 Q335 148 335 205 Q335 285 232 325 Q199 308 179.5 276 Q160 244 160 205 Q160 152 182 125 Q204 98 242 98 Z" /><glyph glyph-name="" unicode="9" d="M205 98 Q262 98 285 133.5 Q308 169 310 275 L308 275 Q263 240 210 240 Q121 240 78 297.5 Q35 355 35 490 Q35 621 86 680.5 Q137 740 245 740 Q324 740 368 712.5 Q412 685 433.5 613 Q455 541 455 410 Q455 248 430 156 Q405 64 355 27 Q305 -10 220 -10 Q154 -10 85 10 L85 128 Q142 98 205 98 ZM245 634 Q205 634 189 604 Q173 574 173 490 Q173 402 187.5 373.5 Q202 345 240 345 Q277 345 296 377.5 Q315 410 315 490 Q315 570 298 602 Q281 634 245 634 Z" /><glyph glyph-name="" unicode="a" d="M249 600 L247 600 L192 275 L304 275 L249 600 ZM322 170 L174 170 L145 0 L5 0 L170 730 L330 730 L495 0 L351 0 L322 170 Z" /><glyph glyph-name="" unicode="b" d="M190 440 L205 440 Q262 440 289 464.5 Q316 489 316 542 Q316 591 293 612.5 Q270 634 220 634 Q203 634 190 629 L190 440 ZM190 335 L190 101 Q207 96 230 96 Q284 96 309 123.5 Q334 151 334 215 Q334 279 307 307 Q280 335 220 335 L190 335 ZM470 210 Q470 -10 230 -10 Q137 -10 50 10 L50 720 Q133 740 220 740 Q450 740 450 555 Q450 493 418 450 Q386 407 335 396 L335 394 Q392 384 431 332.5 Q470 281 470 210 Z" /><glyph glyph-name="" unicode="c" d="M440 715 L440 465 L308 465 L308 629 Q299 632 290 632 Q230 632 200 573.5 Q170 515 170 375 Q170 96 320 96 Q371 96 435 126 L435 15 Q369 -10 295 -10 Q173 -10 104 84.5 Q35 179 35 375 Q35 567 98.5 653.5 Q162 740 290 740 Q370 740 440 715 Z" /><glyph glyph-name="" unicode="d" d="M480 375 Q480 227 451.5 142.5 Q423 58 367 24 Q311 -10 217 -10 Q124 -10 40 10 L40 720 Q124 740 217 740 Q359 740 419.5 660 Q480 580 480 375 ZM344 375 Q344 518 313 575 Q282 632 217 632 Q196 632 180 625 L180 103 Q196 96 217 96 Q282 96 313 157 Q344 218 344 375 Z" /><glyph glyph-name="" unicode="e" d="M210 622 L210 440 L430 440 L430 335 L210 335 L210 108 L440 108 L440 0 L70 0 L70 730 L440 730 L440 622 L210 622 Z" /><glyph glyph-name="" unicode="f" d="M220 335 L220 0 L80 0 L80 730 L440 730 L440 622 L220 622 L220 440 L430 440 L430 335 L220 335 Z" /><glyph glyph-name="" unicode="g" d="M310 632 Q227 632 193.5 575.5 Q160 519 160 365 Q160 217 191.5 156.5 Q223 96 285 96 Q311 96 333 103 L333 335 L235 335 L235 440 L465 440 L465 25 Q382 -10 285 -10 Q25 -10 25 365 Q25 561 94.5 650.5 Q164 740 310 740 Q380 740 440 715 L440 607 Q368 632 310 632 Z" /><glyph glyph-name="" unicode="h" d="M318 335 L178 335 L178 0 L40 0 L40 730 L178 730 L178 440 L318 440 L318 730 L460 730 L460 0 L318 0 L318 335 Z" /><glyph glyph-name="" unicode="i" d="M430 0 L70 0 L70 108 L178 108 L178 622 L70 622 L70 730 L430 730 L430 622 L322 622 L322 108 L430 108 L430 0 Z" /><glyph glyph-name="" unicode="j" d="M410 730 L410 195 Q410 78 362.5 34 Q315 -10 195 -10 Q109 -10 40 20 L40 132 Q111 98 175 98 Q227 98 247 119.5 Q267 141 267 200 L267 622 L120 622 L120 730 L410 730 Z" /><glyph glyph-name="" unicode="k" d="M192 340 L190 340 L190 0 L50 0 L50 730 L190 730 L190 420 L192 420 L327 730 L475 730 L315 385 L480 0 L330 0 L192 340 Z" /><glyph glyph-name="" unicode="l" d="M230 730 L230 108 L450 108 L450 0 L90 0 L90 730 L230 730 Z" /><glyph glyph-name="" unicode="m" d="M341 580 L339 580 L296 140 L192 140 L149 580 L147 580 L132 0 L15 0 L50 730 L203 730 L252 250 L254 250 L293 730 L450 730 L485 0 L356 0 L341 580 Z" /><glyph glyph-name="" unicode="n" d="M187 500 L185 500 L185 0 L50 0 L50 730 L197 730 L317 230 L319 230 L319 730 L450 730 L450 0 L307 0 L187 500 Z" /><glyph glyph-name="" unicode="o" d="M74.5 656 Q129 740 250 740 Q371 740 425.5 656 Q480 572 480 365 Q480 158 425.5 74 Q371 -10 250 -10 Q129 -10 74.5 74 Q20 158 20 365 Q20 572 74.5 656 ZM195 119 Q215 98 250 98 Q285 98 305 119 Q325 140 336.5 199.5 Q348 259 348 365 Q348 471 336.5 530.5 Q325 590 305 611 Q285 632 250 632 Q215 632 195 611 Q175 590 163.5 530.5 Q152 471 152 365 Q152 259 163.5 199.5 Q175 140 195 119 Z" /><glyph glyph-name="" unicode="p" d="M334 482 Q334 562 309.5 597 Q285 632 235 632 Q210 632 190 627 L190 332 Q212 327 235 327 Q285 327 309.5 362.5 Q334 398 334 482 ZM470 482 Q470 347 411.5 284 Q353 221 235 221 Q213 221 190 225 L190 0 L50 0 L50 720 Q140 740 235 740 Q358 740 414 680 Q470 620 470 482 Z" /><glyph glyph-name="" unicode="q" d="M378 25 L378 23 Q415 -2 447.5 -51.5 Q480 -101 490 -150 L345 -150 Q330 -69 308.5 -39.5 Q287 -10 250 -10 Q129 -10 74.5 74 Q20 158 20 365 Q20 572 74.5 656 Q129 740 250 740 Q371 740 425.5 656 Q480 572 480 365 Q480 96 378 25 ZM195 119 Q215 98 250 98 Q285 98 305 119 Q325 140 336.5 199.5 Q348 259 348 365 Q348 471 336.5 530.5 Q325 590 305 611 Q285 632 250 632 Q215 632 195 611 Q175 590 163.5 530.5 Q152 471 152 365 Q152 259 163.5 199.5 Q175 140 195 119 Z" /><glyph glyph-name="" unicode="r" d="M360 316 L360 314 Q398 276 424 194 L485 0 L340 0 L283 204 Q270 248 256.5 262 Q243 276 215 276 L185 276 L185 0 L45 0 L45 720 Q135 740 230 740 Q354 740 409.5 685.5 Q465 631 465 508 Q465 425 439 380 Q413 335 360 316 ZM185 384 L215 384 Q274 384 301.5 412.5 Q329 441 329 508 Q329 574 304.5 603 Q280 632 230 632 Q205 632 185 627 L185 384 Z" /><glyph glyph-name="" unicode="s" d="M440 590 Q356 632 280 632 Q237 632 212.5 610 Q188 588 188 550 Q188 476 255 445 Q373 392 416.5 337.5 Q460 283 460 200 Q460 92 404.5 41 Q349 -10 235 -10 Q135 -10 55 40 L55 166 Q137 98 225 98 Q270 98 295 122 Q320 146 320 190 Q320 231 302.5 258.5 Q285 286 245 305 Q135 356 92.5 409.5 Q50 463 50 540 Q50 636 104.5 688 Q159 740 260 740 Q357 740 440 710 L440 590 Z" /><glyph glyph-name="" unicode="t" d="M320 622 L320 0 L180 0 L180 622 L35 622 L35 730 L465 730 L465 622 L320 622 Z" /><glyph glyph-name="" unicode="u" d="M412.5 37 Q365 -10 250 -10 Q135 -10 87.5 37 Q40 84 40 200 L40 730 L182 730 L182 220 Q182 144 196 121 Q210 98 252 98 Q294 98 308 121 Q322 144 322 220 L322 730 L460 730 L460 200 Q460 84 412.5 37 Z" /><glyph glyph-name="" unicode="v" d="M253 120 L345 730 L485 730 L330 0 L170 0 L15 730 L159 730 L251 120 L253 120 Z" /><glyph glyph-name="" unicode="w" d="M160 190 L162 190 L205 590 L303 590 L346 150 L348 150 L373 730 L495 730 L440 0 L286 0 L247 470 L245 470 L196 0 L60 0 L5 730 L135 730 L160 190 Z" /><glyph glyph-name="" unicode="x" d="M251 460 L253 460 L327 730 L472 730 L340 370 L475 0 L323 0 L249 280 L247 280 L173 0 L25 0 L160 370 L28 730 L177 730 L251 460 Z" /><glyph glyph-name="" unicode="y" d="M251 405 L253 405 L337 730 L485 730 L320 275 L320 0 L180 0 L180 275 L15 730 L167 730 L251 405 Z" /><glyph glyph-name="" unicode="z" d="M290 620 L290 622 L60 622 L60 730 L440 730 L440 622 L210 110 L210 108 L440 108 L440 0 L60 0 L60 108 L290 620 Z" /><glyph glyph-name="" unicode="a" d="M445 25 Q356 -10 260 -10 Q155 -10 100 33.5 Q45 77 45 160 Q45 244 105.5 289.5 Q166 335 285 335 L310 335 L310 345 Q310 397 297.5 413.5 Q285 430 235 430 Q168 430 70 391 L70 495 Q169 530 245 530 Q362 530 403.5 487.5 Q445 445 445 325 L445 25 ZM310 245 L285 245 Q175 245 175 160 Q175 85 260 85 Q287 85 310 95 L310 245 Z" /><glyph glyph-name="" unicode="b" d="M192 505 Q236 530 290 530 Q381 530 423 468.5 Q465 407 465 260 Q465 110 410.5 50 Q356 -10 230 -10 Q137 -10 55 25 L55 750 L192 750 L192 505 ZM328 260 Q328 359 313.5 394.5 Q299 430 265 430 Q219 430 192 395 L192 95 Q212 85 240 85 Q285 85 306.5 122.5 Q328 160 328 260 Z" /><glyph glyph-name="" unicode="c" d="M435 315 L305 315 L305 428 Q291 430 285 430 Q242 430 216 387 Q190 344 190 260 Q190 173 225 129 Q260 85 320 85 Q373 85 430 113 L430 15 Q366 -10 300 -10 Q182 -10 116 58.5 Q50 127 50 260 Q50 530 295 530 Q369 530 435 505 L435 315 Z" /><glyph glyph-name="" unicode="d" d="M308 505 L308 750 L445 750 L445 25 Q363 -10 270 -10 Q144 -10 89.5 50 Q35 110 35 260 Q35 407 77 468.5 Q119 530 210 530 Q264 530 308 505 ZM172 260 Q172 160 193.5 122.5 Q215 85 260 85 Q288 85 308 95 L308 395 Q281 430 235 430 Q201 430 186.5 394.5 Q172 359 172 260 Z" /><glyph glyph-name="" unicode="e" d="M184 206 Q191 140 219 115 Q247 90 305 90 Q354 90 430 117 L430 15 Q355 -10 285 -10 Q166 -10 103 57 Q40 124 40 260 Q40 530 260 530 Q361 530 410.5 465.5 Q460 401 460 260 Q460 229 458 206 L184 206 ZM183 301 L325 301 Q324 379 308.5 407 Q293 435 255 435 Q221 435 204 406 Q187 377 183 301 Z" /><glyph glyph-name="" unicode="f" d="M60 400 L60 500 L160 500 L160 545 Q160 654 198.5 697 Q237 740 330 740 Q386 740 440 725 L440 629 Q402 645 360 645 Q319 645 308 624.5 Q297 604 297 525 L297 500 L440 500 L440 400 L297 400 L297 0 L160 0 L160 400 L60 400 Z" /><glyph glyph-name="" unicode="g" d="M105 -126 Q313 -126 313 25 L313 40 Q273 20 230 20 Q138 20 89 83.5 Q40 147 40 275 Q40 415 95.5 472.5 Q151 530 285 530 Q374 530 450 505 L450 45 Q450 -85 361 -157.5 Q272 -230 105 -230 L105 -126 ZM177 275 Q177 120 255 120 Q287 120 313 135 L313 425 Q298 430 275 430 Q220 430 198.5 397.5 Q177 365 177 275 Z" /><glyph glyph-name="" unicode="h" d="M300 530 Q383 530 419 490 Q455 450 455 355 L455 0 L320 0 L320 320 Q320 391 309.5 410.5 Q299 430 265 430 Q228 430 192 394 L192 0 L55 0 L55 750 L192 750 L192 500 Q245 530 300 530 Z" /><glyph glyph-name="" unicode="i" d="M355 520 L355 0 L215 0 L215 420 L85 420 L85 520 L355 520 ZM195 630 L195 760 L355 760 L355 630 L195 630 Z" /><glyph glyph-name="" unicode="j" d="M225 30 L225 420 L95 420 L95 520 L365 520 L365 40 Q365 -230 55 -230 L55 -126 Q145 -126 185 -89.5 Q225 -53 225 30 ZM205 630 L205 760 L365 760 L365 630 L205 630 Z" /><glyph glyph-name="" unicode="k" d="M480 520 L295 270 L480 0 L318 0 L187 211 L187 0 L50 0 L50 750 L187 750 L187 324 L320 520 L480 520 Z" /><glyph glyph-name="" unicode="l" d="M315 100 L445 100 L445 0 L175 0 L175 630 L45 630 L45 730 L315 730 L315 100 Z" /><glyph glyph-name="" unicode="m" d="M366 0 L366 400 Q366 431 342 431 Q324 431 315 419 L315 0 L191 0 L191 400 Q191 431 167 431 Q149 431 140 419 L140 0 L10 0 L10 490 Q72 530 157 530 Q216 530 250 505 Q296 530 354 530 Q433 530 461.5 499 Q490 468 490 380 L490 0 L366 0 Z" /><glyph glyph-name="" unicode="n" d="M315 350 Q315 396 299.5 413 Q284 430 240 430 Q210 430 187 413 L187 0 L50 0 L50 485 Q127 530 235 530 Q365 530 407.5 492 Q450 454 450 340 L450 0 L315 0 L315 350 Z" /><glyph glyph-name="" unicode="o" d="M85 465 Q140 530 250 530 Q360 530 415 465 Q470 400 470 260 Q470 120 415 55 Q360 -10 250 -10 Q140 -10 85 55 Q30 120 30 260 Q30 400 85 465 ZM187.5 124 Q205 90 250 90 Q295 90 312.5 124 Q330 158 330 260 Q330 362 312.5 396 Q295 430 250 430 Q205 430 187.5 396 Q170 362 170 260 Q170 158 187.5 124 Z" /><glyph glyph-name="" unicode="p" d="M460 260 Q460 -10 270 -10 Q227 -10 187 10 L187 -220 L50 -220 L50 495 Q132 530 225 530 Q352 530 406 469 Q460 408 460 260 ZM323 260 Q323 357 302.5 393.5 Q282 430 235 430 Q211 430 187 420 L187 105 Q213 90 245 90 Q323 90 323 260 Z" /><glyph glyph-name="" unicode="q" d="M40 260 Q40 408 94 469 Q148 530 275 530 Q368 530 450 495 L450 -220 L313 -220 L313 10 Q273 -10 230 -10 Q40 -10 40 260 ZM177 260 Q177 90 255 90 Q287 90 313 105 L313 420 Q289 430 265 430 Q218 430 197.5 393.5 Q177 357 177 260 Z" /><glyph glyph-name="" unicode="r" d="M435 530 L435 428 Q322 428 222 403 L222 0 L85 0 L85 475 Q262 530 435 530 Z" /><glyph glyph-name="" unicode="s" d="M265 432 Q192 432 192 380 Q192 333 255 320 Q364 299 404.5 260 Q445 221 445 145 Q445 71 394.5 30.5 Q344 -10 250 -10 Q143 -10 60 25 L60 133 Q147 90 225 90 Q270 90 289 103 Q308 116 308 145 Q308 168 293 182 Q278 196 240 205 Q141 226 98 267.5 Q55 309 55 380 Q55 451 104 490.5 Q153 530 250 530 Q349 530 430 505 L430 404 Q343 432 265 432 Z" /><glyph glyph-name="" unicode="t" d="M445 500 L445 400 L287 400 L287 190 Q287 129 297.5 115.5 Q308 102 355 102 Q398 102 435 119 L435 5 Q385 -10 325 -10 Q227 -10 188.5 26.5 Q150 63 150 160 L150 400 L45 400 L45 500 L150 500 L150 690 L287 690 L287 500 L445 500 Z" /><glyph glyph-name="" unicode="u" d="M190 170 Q190 124 204.5 107 Q219 90 255 90 Q288 90 309 107 L308 520 L445 520 L445 35 Q368 -10 260 -10 Q142 -10 98.5 28 Q55 66 55 170 L55 520 L190 520 L190 170 Z" /><glyph glyph-name="" unicode="v" d="M251 90 L253 90 L332 520 L470 520 L340 0 L160 0 L30 520 L172 520 L251 90 Z" /><glyph glyph-name="" unicode="w" d="M160 150 L209 520 L304 520 L353 120 L355 120 L380 520 L490 520 L430 0 L287 0 L245 388 L243 388 L197 0 L70 0 L10 520 L133 520 L158 150 L160 150 Z" /><glyph glyph-name="" unicode="x" d="M251 335 L253 335 L322 520 L465 520 L340 260 L465 0 L313 0 L249 180 L247 180 L183 0 L35 0 L160 260 L35 520 L182 520 L251 335 Z" /><glyph glyph-name="" unicode="y" d="M254 170 L256 170 L343 520 L485 520 L248 -220 L110 -220 L195 10 L25 520 L163 520 L254 170 Z" /><glyph glyph-name="" unicode="z" d="M275 420 L65 420 L65 520 L435 520 L435 420 L225 102 L225 100 L435 100 L435 0 L65 0 L65 100 L275 418 L275 420 Z" /></font>
</defs>
</svg>
